<svg xmlns="http://www.w3.org/2000/svg" xml:space="preserve" id="Layer_1" x="0" y="0" style="enable-background:new 0 0 541.1 133.7" version="1.1" viewBox="0 0 541.1 133.7"><style>.st0{fill:#fff}</style><path d="M66.8 0C29.9 0 0 29.9 0 66.8s29.9 66.8 66.8 66.8 66.8-29.9 66.8-66.8C133.7 29.9 103.7 0 66.8 0zM26.5 47.7c-2.6.5-4.4 2.4-5.5 5.6-.5 1.6-.8 3.2-.8 4.8v.5c0 .1 0 .4.1.9h6.1v12.3h-12V60.4c0-5.6 1.1-9.8 3.3-12.8 2.2-3 5.1-4.7 8.7-5.2v5.3zm19 0c-2.1.3-3.6 1.5-4.7 3.5s-1.6 4.3-1.6 6.9v.7c0 .2.1.5.1.7h6.1v12.3h-12V60.4c0-4.5.9-8.4 2.8-12 1.9-3.5 4.9-5.5 9.2-6v5.3zm52 11.8c0 4.5-.9 8.4-2.8 11.9-1.8 3.5-4.9 5.5-9.2 6.1v-5.3c2.8-.5 4.7-2.6 5.6-6.2.5-2.1.7-4 .5-5.6h-6.1V48.2h12v11.3zm16.2 12c-1.8 3.5-4.9 5.5-9.3 6v-5.3c2.8-.5 4.7-2.6 5.6-6.2.5-2.1.7-4 .6-5.6h-6.1V48.2h12v11.3c-.1 4.5-1 8.5-2.8 12zM165.9 28.7v61.8h-13.1V28.7h13.1zM188.4 63.7v26.8h-12.9V44.2h12.3v8.2h.5c1-2.7 2.7-4.8 5.2-6.4 2.4-1.6 5.3-2.4 8.8-2.4 3.2 0 6 .7 8.4 2.1 2.4 1.4 4.3 3.4 5.6 6 1.3 2.6 2 5.7 2 9.3v29.5h-12.9V63.3c0-2.8-.7-5.1-2.2-6.7-1.5-1.6-3.5-2.4-6.1-2.4-1.7 0-3.3.4-4.6 1.1-1.3.7-2.3 1.8-3.1 3.2-.6 1.5-.9 3.2-1 5.2zM244.7 91.3c-3.5 0-6.7-.9-9.6-2.7-2.8-1.8-5.1-4.5-6.8-8.1s-2.5-7.9-2.5-13.1c0-5.3.9-9.7 2.6-13.3 1.7-3.5 4-6.2 6.8-7.9 2.8-1.8 6-2.6 9.4-2.6 2.6 0 4.8.4 6.5 1.3 1.7.9 3.1 2 4.2 3.3 1.1 1.3 1.9 2.6 2.5 3.8h.4V28.7H271v61.8h-12.7v-7.4h-.5c-.6 1.3-1.5 2.6-2.6 3.8-1.1 1.3-2.5 2.3-4.3 3.1-1.6.9-3.7 1.3-6.2 1.3zm4-10.3c2.1 0 3.8-.6 5.3-1.7 1.4-1.1 2.5-2.7 3.3-4.8.8-2.1 1.2-4.5 1.2-7.2s-.4-5.2-1.1-7.2c-.8-2-1.9-3.6-3.3-4.7s-3.2-1.7-5.3-1.7c-2.1 0-3.9.6-5.3 1.7s-2.5 2.7-3.3 4.8c-.7 2-1.1 4.4-1.1 7.1 0 2.7.4 5.1 1.1 7.1.8 2.1 1.9 3.7 3.3 4.8 1.4 1.3 3.1 1.8 5.2 1.8zM287.2 38.2c-1.9 0-3.5-.6-4.9-1.9-1.4-1.3-2-2.8-2-4.6 0-1.8.7-3.3 2.1-4.6 1.4-1.3 3-1.9 4.9-1.9 1.9 0 3.5.6 4.9 1.9 1.4 1.3 2 2.8 2 4.6s-.7 3.3-2 4.6c-1.5 1.2-3.1 1.9-5 1.9zm-6.5 52.3V44.2h12.9v46.4h-12.9zM345.4 70.6v-3.5c0-3.9-.6-7.4-1.7-10.3-1.1-2.9-2.7-5.4-4.6-7.3-2-2-4.3-3.4-6.9-4.4-2.6-1-5.5-1.5-8.6-1.5-4.5 0-8.5 1-11.9 3-3.4 2-6 4.8-7.8 8.4-1.9 3.6-2.8 7.8-2.8 12.6 0 4.9.9 9.1 2.8 12.7 1.9 3.6 4.5 6.3 7.9 8.3 3.4 1.9 7.5 2.9 12.3 2.9 3.8 0 7.2-.6 10.1-1.8 2.9-1.2 5.3-2.8 7.2-5s3.1-4.6 3.7-7.5l-11.9-.8c-.4 1.2-1.1 2.2-1.9 3-.8.8-1.9 1.4-3 1.8s-2.5.6-3.9.6c-2.2 0-4-.5-5.6-1.4-1.6-.9-2.8-2.2-3.6-3.9-.9-1.7-1.3-3.7-1.3-5.9h31.5zm-26.7-16.1c1.5-.9 3.2-1.3 5.2-1.3 1.9 0 3.5.4 4.9 1.2s2.5 1.9 3.3 3.4c.8 1.4 1.2 3.1 1.2 4.9h-19.4c.1-1.7.5-3.2 1.3-4.6.8-1.5 2-2.7 3.5-3.6zM397.1 38.8c-1.7-3.1-4.3-5.6-7.6-7.4-3.3-1.8-7.3-2.7-12-2.7h-24.4v61.8h13.1v-20h11c4.7 0 8.8-.9 12.1-2.6 3.4-1.8 5.9-4.2 7.7-7.3 1.8-3.1 2.7-6.8 2.7-10.9s-.8-7.8-2.6-10.9zm-12 16.2c-.8 1.6-2 2.8-3.7 3.7-1.6.9-3.7 1.3-6.2 1.3h-8.9V39.4h8.8c2.5 0 4.6.4 6.3 1.3 1.6.9 2.9 2.1 3.7 3.6.8 1.5 1.2 3.3 1.2 5.4 0 2-.4 3.8-1.2 5.3zM419.1 91.4c-3 0-5.6-.5-7.9-1.6-2.3-1-4.1-2.6-5.5-4.6-1.3-2-2-4.6-2-7.7 0-2.6.5-4.7 1.4-6.5.9-1.8 2.2-3.2 3.9-4.2 1.6-1.1 3.5-1.9 5.6-2.4s4.3-.9 6.6-1.1c2.7-.3 4.9-.5 6.5-.8 1.6-.3 2.8-.6 3.6-1.1s1.1-1.2 1.1-2.2V59c0-1.9-.6-3.4-1.8-4.4-1.2-1-2.9-1.6-5.1-1.6-2.3 0-4.2.5-5.5 1.5-1.4 1-2.3 2.3-2.7 3.8l-11.9-1c.6-2.8 1.8-5.3 3.6-7.3 1.8-2.1 4.1-3.7 6.9-4.8 2.8-1.1 6.1-1.7 9.8-1.7 2.6 0 5 .3 7.4.9 2.4.6 4.5 1.5 6.3 2.8 1.8 1.3 3.3 2.9 4.4 4.9 1.1 2 1.6 4.4 1.6 7.1v31.3h-12.2v-6.4h-.4c-.7 1.4-1.7 2.7-3 3.8-1.2 1.1-2.7 2-4.5 2.6-1.8.6-3.9.9-6.2.9zm3.7-8.9c1.9 0 3.6-.4 5-1.1 1.4-.8 2.6-1.8 3.4-3.1s1.2-2.7 1.2-4.4V69c-.4.3-1 .5-1.6.7s-1.5.4-2.3.6c-.9.2-1.7.3-2.6.5s-1.6.2-2.4.3c-1.5.2-2.8.6-4 1.1-1.1.5-2 1.1-2.6 1.9-.6.8-.9 1.8-.9 3 0 1.8.6 3.1 1.9 4 1.3 1 3 1.4 4.9 1.4zM493 57.4l-11.8.7c-.2-1-.6-1.9-1.3-2.7s-1.5-1.5-2.6-2-2.4-.7-3.8-.7c-2 0-3.7.4-5 1.3-1.4.8-2.1 1.9-2.1 3.3 0 1.1.4 2 1.3 2.8.9.8 2.4 1.4 4.6 1.8l8.4 1.7c4.5.9 7.9 2.4 10.1 4.5s3.3 4.7 3.3 8.1c0 3-.9 5.7-2.7 8-1.8 2.3-4.2 4.1-7.3 5.4-3.1 1.3-6.6 1.9-10.7 1.9-6.1 0-11-1.3-14.7-3.8-3.6-2.6-5.8-6.1-6.4-10.5l12.6-.7c.4 1.9 1.3 3.3 2.8 4.3 1.5 1 3.4 1.5 5.6 1.5 2.3 0 4.1-.4 5.4-1.3 1.4-.9 2.1-2 2.1-3.4 0-1.2-.5-2.1-1.5-2.9-1-.8-2.5-1.3-4.5-1.7l-8-1.6c-4.5-.9-7.9-2.5-10.1-4.7-2.2-2.2-3.3-5.1-3.3-8.5 0-3 .8-5.5 2.4-7.7 1.6-2.2 3.9-3.8 6.9-5 2.9-1.2 6.4-1.8 10.4-1.8 5.9 0 10.5 1.2 13.8 3.7 3.5 2.3 5.5 5.7 6.1 10zM539.9 57.4l-11.8.7c-.2-1-.6-1.9-1.3-2.7s-1.5-1.5-2.6-2-2.4-.7-3.8-.7c-2 0-3.7.4-5 1.3-1.4.8-2.1 1.9-2.1 3.3 0 1.1.4 2 1.3 2.8.9.8 2.4 1.4 4.6 1.8l8.4 1.7c4.5.9 7.9 2.4 10.1 4.5s3.3 4.7 3.3 8.1c0 3-.9 5.7-2.7 8-1.8 2.3-4.2 4.1-7.3 5.4-3.1 1.3-6.6 1.9-10.7 1.9-6.1 0-11-1.3-14.7-3.8-3.6-2.6-5.8-6.1-6.4-10.5l12.6-.7c.4 1.9 1.3 3.3 2.8 4.3 1.5 1 3.4 1.5 5.6 1.5 2.3 0 4.1-.4 5.4-1.3 1.4-.9 2.1-2 2.1-3.4 0-1.2-.5-2.1-1.5-2.9-1-.8-2.5-1.3-4.5-1.7l-8-1.6c-4.5-.9-7.9-2.5-10.1-4.7-2.2-2.2-3.3-5.1-3.3-8.5 0-3 .8-5.5 2.4-7.7 1.6-2.2 3.9-3.8 6.9-5 2.9-1.2 6.4-1.8 10.4-1.8 5.9 0 10.5 1.2 13.8 3.7 3.5 2.3 5.5 5.7 6.1 10z" class="st0"/></svg>