
<?xml version="1.0" encoding="UTF-8" standalone="no"?><!DOCTYPE svg PUBLIC "-//W3C//DTD SVG 1.1//EN" "http://www.w3.org/Graphics/SVG/1.1/DTD/svg11.dtd"><svg width="100%" height="100%" viewBox="0 0 87 19" version="1.1" xmlns="http://www.w3.org/2000/svg" xmlns:xlink="http://www.w3.org/1999/xlink" xml:space="preserve" xmlns:serif="http://www.serif.com/" style="fill-rule:evenodd;clip-rule:evenodd;stroke-linejoin:round;stroke-miterlimit:2;"><path d="M9.5,0c5.243,0 9.5,4.257 9.5,9.5c-0,5.243 -4.257,9.5 -9.5,9.5c-5.243,0 -9.5,-4.257 -9.5,-9.5c0,-5.243 4.257,-9.5 9.5,-9.5Zm5.343,10.269c0.4,-0.075 0.663,-0.368 0.791,-0.879c0.075,-0.304 0.101,-0.567 0.08,-0.791l-0.871,-0l0,-1.742l1.71,-0l0,1.606c0,0.634 -0.13,1.2 -0.391,1.698c-0.261,0.498 -0.701,0.784 -1.319,0.859l0,-0.751Zm-2.685,-0c0.4,-0.075 0.666,-0.368 0.799,-0.879c0.075,-0.304 0.099,-0.567 0.072,-0.791l-0.871,-0l0,-1.742l1.702,-0l0,1.606c0,0.634 -0.13,1.197 -0.391,1.69c-0.261,0.493 -0.698,0.782 -1.311,0.867l0,-0.751Zm-8.389,-3.485c-0.368,0.069 -0.626,0.335 -0.775,0.799c-0.075,0.229 -0.112,0.455 -0.112,0.679c-0,0.026 0.001,0.049 0.004,0.068c0.003,0.018 0.007,0.06 0.012,0.124l0.871,-0l-0,1.742l-1.702,-0l-0,-1.606c-0,-0.789 0.157,-1.396 0.471,-1.822c0.315,-0.427 0.725,-0.672 1.231,-0.735l-0,0.751Zm2.693,-0c-0.293,0.048 -0.516,0.213 -0.667,0.495c-0.152,0.282 -0.228,0.607 -0.228,0.975c-0,0.032 0.001,0.064 0.004,0.096c0.002,0.032 0.009,0.066 0.02,0.104l0.871,-0l-0,1.742l-1.71,-0l-0,-1.606c-0,-0.634 0.133,-1.2 0.399,-1.699c0.267,-0.498 0.703,-0.784 1.311,-0.858l-0,0.751Z" style="fill:#fff;"/><g><rect x="21.683" y="4.09" width="1.845" height="8.727" style="fill:#fff;fill-rule:nonzero;"/><path d="M26.831,9.033c0.004,-0.843 0.507,-1.338 1.24,-1.338c0.728,0 1.167,0.478 1.163,1.279l0,3.843l1.815,0l0,-4.167c0,-1.526 -0.894,-2.463 -2.258,-2.463c-0.972,-0 -1.675,0.477 -1.969,1.24l-0.077,-0l0,-1.155l-1.73,0l0,6.545l1.816,0l-0,-3.784Z" style="fill:#fff;fill-rule:nonzero;"/><path d="M34.889,12.924c1.057,-0 1.606,-0.609 1.858,-1.155l0.077,0l-0,1.048l1.789,0l0,-8.727l-1.811,0l0,3.281l-0.055,0c-0.243,-0.532 -0.767,-1.184 -1.862,-1.184c-1.436,-0 -2.651,1.116 -2.651,3.366c0,2.191 1.163,3.371 2.655,3.371Zm0.575,-1.445c-0.89,0 -1.376,-0.792 -1.376,-1.934c-0,-1.134 0.477,-1.914 1.376,-1.914c0.882,0 1.377,0.746 1.377,1.914c-0,1.167 -0.503,1.934 -1.377,1.934Z" style="fill:#fff;fill-rule:nonzero;"/><path d="M40.101,12.817l1.815,0l-0,-6.545l-1.815,0l-0,6.545Zm0.912,-7.389c0.541,0 0.984,-0.413 0.984,-0.92c-0,-0.503 -0.443,-0.916 -0.984,-0.916c-0.537,-0 -0.981,0.413 -0.981,0.916c0,0.507 0.444,0.92 0.981,0.92Z" style="fill:#fff;fill-rule:nonzero;"/><path d="M46.314,15.408c1.87,0 3.2,-0.852 3.2,-2.527l-0,-6.609l-1.803,0l0,1.099l-0.068,0c-0.243,-0.532 -0.775,-1.184 -1.871,-1.184c-1.436,-0 -2.65,1.116 -2.65,3.345c-0,2.177 1.18,3.192 2.655,3.192c1.044,-0 1.628,-0.524 1.866,-1.066l0.077,0l-0,1.198c-0,0.899 -0.575,1.248 -1.364,1.248c-0.801,0 -1.206,-0.349 -1.355,-0.745l-1.679,0.225c0.218,1.032 1.227,1.824 2.992,1.824Zm0.038,-4.048c-0.891,0 -1.376,-0.707 -1.376,-1.837c-0,-1.112 0.477,-1.892 1.376,-1.892c0.882,0 1.376,0.746 1.376,1.892c0,1.155 -0.502,1.837 -1.376,1.837Z" style="fill:#fff;fill-rule:nonzero;"/><path d="M53.946,12.945c1.619,0 2.71,-0.788 2.966,-2.003l-1.679,-0.11c-0.184,0.498 -0.652,0.758 -1.257,0.758c-0.908,0 -1.483,-0.601 -1.483,-1.577l-0,-0.004l4.457,0l-0,-0.498c-0,-2.225 -1.347,-3.324 -3.077,-3.324c-1.926,-0 -3.174,1.368 -3.174,3.388c-0,2.075 1.231,3.37 3.247,3.37Zm-1.453,-4.061c0.038,-0.745 0.605,-1.342 1.41,-1.342c0.788,-0 1.334,0.562 1.338,1.342l-2.748,0Z" style="fill:#fff;fill-rule:nonzero;"/><path d="M59.95,9.033c0.004,-0.843 0.507,-1.338 1.24,-1.338c0.729,0 1.168,0.478 1.163,1.279l0,3.843l1.816,0l-0,-4.167c-0,-1.526 -0.895,-2.463 -2.259,-2.463c-0.971,-0 -1.674,0.477 -1.969,1.24l-0.076,-0l-0,-1.155l-1.73,0l-0,6.545l1.815,0l0,-3.784Z" style="fill:#fff;fill-rule:nonzero;"/><path d="M68.554,12.945c1.985,0 3.221,-1.359 3.221,-3.375c0,-2.028 -1.236,-3.383 -3.221,-3.383c-1.986,-0 -3.222,1.355 -3.222,3.383c0,2.016 1.236,3.375 3.222,3.375Zm0.008,-1.406c-0.916,0 -1.385,-0.839 -1.385,-1.981c0,-1.143 0.469,-1.986 1.385,-1.986c0.899,-0 1.368,0.843 1.368,1.986c0,1.142 -0.469,1.981 -1.368,1.981Z" style="fill:#fff;fill-rule:nonzero;"/><path d="M77.157,10.031c0.005,0.877 -0.596,1.338 -1.248,1.338c-0.686,-0 -1.129,-0.482 -1.134,-1.253l0,-3.844l-1.815,0l-0,4.168c0.004,1.529 0.899,2.463 2.216,2.463c0.984,-0 1.692,-0.507 1.986,-1.274l0.068,-0l-0,1.188l1.743,0l-0,-6.545l-1.816,0l0,3.759Z" style="fill:#fff;fill-rule:nonzero;"/><path d="M85.868,8.139c-0.162,-1.206 -1.134,-1.952 -2.787,-1.952c-1.675,-0 -2.779,0.775 -2.774,2.037c-0.005,0.98 0.613,1.615 1.892,1.87l1.133,0.226c0.571,0.115 0.831,0.324 0.84,0.652c-0.009,0.388 -0.431,0.665 -1.066,0.665c-0.647,0 -1.078,-0.277 -1.189,-0.81l-1.785,0.094c0.17,1.253 1.236,2.024 2.97,2.024c1.696,0 2.91,-0.865 2.915,-2.156c-0.005,-0.946 -0.622,-1.513 -1.892,-1.773l-1.185,-0.238c-0.609,-0.132 -0.835,-0.341 -0.831,-0.657c-0.004,-0.392 0.439,-0.647 1.002,-0.647c0.63,-0 1.005,0.345 1.095,0.767l1.662,-0.102Z" style="fill:#fff;fill-rule:nonzero;"/></g></svg>