<svg clip-rule="evenodd" fill-rule="evenodd" stroke-linejoin="round" stroke-miterlimit="2" viewBox="0 0 95 25" xmlns="http://www.w3.org/2000/svg"><path d="m0 0h95v25h-95z" fill="#d54049"/><g fill="#fff"><path d="m13.5 3c5.243 0 9.5 4.257 9.5 9.5s-4.257 9.5-9.5 9.5-9.5-4.257-9.5-9.5 4.257-9.5 9.5-9.5zm5.343 10.269c.4-.075.663-.368.791-.879.075-.304.101-.567.08-.791h-.871v-1.742h1.71v1.606c0 .634-.13 1.2-.391 1.698s-.701.784-1.319.859zm-2.685 0c.4-.075.666-.368.799-.879.075-.304.099-.567.072-.791h-.871v-1.742h1.702v1.606c0 .634-.13 1.197-.391 1.69s-.698.782-1.311.867zm-8.389-3.485c-.368.069-.626.335-.775.799-.075.229-.112.455-.112.679 0 .026.001.049.004.068.003.018.007.06.012.124h.871v1.742h-1.702v-1.606c0-.789.157-1.396.471-1.822.315-.427.725-.672 1.231-.735zm2.693 0c-.293.048-.516.213-.667.495-.152.282-.228.607-.228.975 0 .032.001.064.004.096.002.032.009.066.02.104h.871v1.742h-1.71v-1.606c0-.634.133-1.2.399-1.699.267-.498.703-.784 1.311-.858z"/><path d="m25.683 7.09h1.845v8.727h-1.845z"/><path d="m30.831 12.033c.004-.843.507-1.338 1.24-1.338.728 0 1.167.478 1.163 1.279v3.843h1.815v-4.167c0-1.526-.894-2.463-2.258-2.463-.972 0-1.675.477-1.969 1.24h-.077v-1.155h-1.73v6.545h1.816z" fill-rule="nonzero"/><path d="m38.889 15.924c1.057 0 1.606-.609 1.858-1.155h.077v1.048h1.789v-8.727h-1.811v3.281h-.055c-.243-.532-.767-1.184-1.862-1.184-1.436 0-2.651 1.116-2.651 3.366 0 2.191 1.163 3.371 2.655 3.371zm.575-1.445c-.89 0-1.376-.792-1.376-1.934 0-1.134.477-1.914 1.376-1.914.882 0 1.377.746 1.377 1.914 0 1.167-.503 1.934-1.377 1.934z" fill-rule="nonzero"/><path d="m44.101 15.817h1.815v-6.545h-1.815zm.912-7.389c.541 0 .984-.413.984-.92 0-.503-.443-.916-.984-.916-.537 0-.981.413-.981.916 0 .507.444.92.981.92z" fill-rule="nonzero"/><path d="m50.314 18.408c1.87 0 3.2-.852 3.2-2.527v-6.609h-1.803v1.099h-.068c-.243-.532-.775-1.184-1.871-1.184-1.436 0-2.65 1.116-2.65 3.345 0 2.177 1.18 3.192 2.655 3.192 1.044 0 1.628-.524 1.866-1.066h.077v1.198c0 .899-.575 1.248-1.364 1.248-.801 0-1.206-.349-1.355-.745l-1.679.225c.218 1.032 1.227 1.824 2.992 1.824zm.038-4.048c-.891 0-1.376-.707-1.376-1.837 0-1.112.477-1.892 1.376-1.892.882 0 1.376.746 1.376 1.892 0 1.155-.502 1.837-1.376 1.837z" fill-rule="nonzero"/><path d="m57.946 15.945c1.619 0 2.71-.788 2.966-2.003l-1.679-.11c-.184.498-.652.758-1.257.758-.908 0-1.483-.601-1.483-1.577v-.004h4.457v-.498c0-2.225-1.347-3.324-3.077-3.324-1.926 0-3.174 1.368-3.174 3.388 0 2.075 1.231 3.37 3.247 3.37zm-1.453-4.061c.038-.745.605-1.342 1.41-1.342.788 0 1.334.562 1.338 1.342z" fill-rule="nonzero"/><path d="m63.95 12.033c.004-.843.507-1.338 1.24-1.338.729 0 1.168.478 1.163 1.279v3.843h1.816v-4.167c0-1.526-.895-2.463-2.259-2.463-.971 0-1.674.477-1.969 1.24h-.076v-1.155h-1.73v6.545h1.815z" fill-rule="nonzero"/><path d="m72.554 15.945c1.985 0 3.221-1.359 3.221-3.375 0-2.028-1.236-3.383-3.221-3.383-1.986 0-3.222 1.355-3.222 3.383 0 2.016 1.236 3.375 3.222 3.375zm.008-1.406c-.916 0-1.385-.839-1.385-1.981 0-1.143.469-1.986 1.385-1.986.899 0 1.368.843 1.368 1.986 0 1.142-.469 1.981-1.368 1.981z" fill-rule="nonzero"/><path d="m81.157 13.031c.005.877-.596 1.338-1.248 1.338-.686 0-1.129-.482-1.134-1.253v-3.844h-1.815v4.168c.004 1.529.899 2.463 2.216 2.463.984 0 1.692-.507 1.986-1.274h.068v1.188h1.743v-6.545h-1.816z" fill-rule="nonzero"/><path d="m89.868 11.139c-.162-1.206-1.134-1.952-2.787-1.952-1.675 0-2.779.775-2.774 2.037-.005.98.613 1.615 1.892 1.87l1.133.226c.571.115.831.324.84.652-.009.388-.431.665-1.066.665-.647 0-1.078-.277-1.189-.81l-1.785.094c.17 1.253 1.236 2.024 2.97 2.024 1.696 0 2.91-.865 2.915-2.156-.005-.946-.622-1.513-1.892-1.773l-1.185-.238c-.609-.132-.835-.341-.831-.657-.004-.392.439-.647 1.002-.647.63 0 1.005.345 1.095.767z" fill-rule="nonzero"/></g></svg>