<svg xmlns="http://www.w3.org/2000/svg" xmlns:xlink="http://www.w3.org/1999/xlink" xml:space="preserve" style="fill-rule:evenodd;clip-rule:evenodd;stroke-linejoin:round;stroke-miterlimit:2" viewBox="0 0 81 25"><defs><path id="reuse-0" d="m.514-.39-.138.008a.09.09 0 0 0-.015-.031.083.083 0 0 0-.031-.024.126.126 0 0 0-.046-.008.11.11 0 0 0-.059.015c-.016.009-.024.022-.024.039a.04.04 0 0 0 .016.033c.01.009.028.016.053.021l.099.02a.249.249 0 0 1 .119.053.124.124 0 0 1 .039.095.149.149 0 0 1-.032.094.201.201 0 0 1-.086.063.324.324 0 0 1-.125.023.298.298 0 0 1-.173-.046.175.175 0 0 1-.075-.123l.149-.008a.074.074 0 0 0 .033.05.112.112 0 0 0 .066.018.11.11 0 0 0 .064-.016c.016-.01.025-.023.025-.04a.042.042 0 0 0-.017-.034.133.133 0 0 0-.053-.02L.209-.227A.228.228 0 0 1 .09-.282a.139.139 0 0 1-.039-.101c0-.035.009-.065.028-.09A.178.178 0 0 1 .16-.532a.325.325 0 0 1 .122-.021c.069 0 .123.015.163.044a.169.169 0 0 1 .069.119Z" style="fill:#fff;fill-rule:nonzero"/></defs><path d="M0 0h95v25H0z" style="fill:#c62828" transform="scale(.85117 1)"/><path d="M13.5 3c5.243 0 9.5 4.257 9.5 9.5S18.743 22 13.5 22 4 17.743 4 12.5 8.257 3 13.5 3Zm5.343 10.269c.4-.075.663-.368.791-.879.075-.304.101-.567.08-.791h-.871V9.857h1.71v1.606c0 .634-.13 1.2-.391 1.698s-.701.784-1.319.859v-.751Zm-2.685 0c.4-.075.666-.368.799-.879.075-.304.099-.567.072-.791h-.871V9.857h1.702v1.606c0 .634-.13 1.197-.391 1.69-.261.493-.698.782-1.311.867v-.751ZM7.769 9.784c-.368.069-.626.335-.775.799a2.17 2.17 0 0 0-.112.679c0 .026.001.049.004.068.003.018.007.06.012.124h.871v1.742H6.067V11.59c0-.789.157-1.396.471-1.822.315-.427.725-.672 1.231-.735v.751Zm2.693 0c-.293.048-.516.213-.667.495a2.023 2.023 0 0 0-.224 1.071.485.485 0 0 0 .02.104h.871v1.742h-1.71V11.59c0-.634.133-1.2.399-1.699.267-.498.703-.784 1.311-.858v.751Z" style="fill:#fff" transform="translate(-1.132)"/><path d="M.063-.727h.154V0H.063z" style="fill:#fff;fill-rule:nonzero" transform="matrix(12 0 0 12 23.537 15.805)"/><path d="M.212-.315V0H.061v-.545h.144v.096h.006a.152.152 0 0 1 .061-.076.189.189 0 0 1 .103-.028c.038 0 .071.009.099.025a.18.18 0 0 1 .066.071.248.248 0 0 1 .023.11V0H.412v-.32c0-.034-.008-.06-.026-.079a.09.09 0 0 0-.071-.028.108.108 0 0 0-.054.013.101.101 0 0 0-.036.038.128.128 0 0 0-.013.061Z" style="fill:#fff;fill-rule:nonzero" transform="matrix(12 0 0 12 26.707 15.805)"/><path d="M.261.009a.206.206 0 0 1-.192-.127.371.371 0 0 1-.029-.154c0-.063.01-.115.03-.156a.215.215 0 0 1 .081-.094.21.21 0 0 1 .11-.031c.03 0 .056.006.076.016a.14.14 0 0 1 .05.038.19.19 0 0 1 .029.045h.005v-.273h.151V0H.423v-.087H.416a.172.172 0 0 1-.08.081.167.167 0 0 1-.075.015Zm.048-.121a.092.092 0 0 0 .062-.02.123.123 0 0 0 .039-.056.24.24 0 0 0 .014-.085.238.238 0 0 0-.014-.084.12.12 0 0 0-.038-.056.1.1 0 0 0-.063-.019.1.1 0 0 0-.063.02.114.114 0 0 0-.038.056.237.237 0 0 0-.013.083c0 .032.004.06.013.084a.132.132 0 0 0 .039.057c.017.014.038.02.062.02Z" style="fill:#fff;fill-rule:nonzero" transform="matrix(12 0 0 12 33.73 15.805)"/><path d="M.061 0v-.545h.151V0H.061Zm.075-.616a.08.08 0 0 1-.057-.022.071.071 0 0 1-.024-.054c0-.021.008-.039.024-.054a.081.081 0 0 1 .057-.023c.023 0 .042.008.058.023a.071.071 0 0 1 .024.054.071.071 0 0 1-.024.054.08.08 0 0 1-.058.022Z" style="fill:#fff;fill-rule:nonzero" transform="matrix(12 0 0 12 41.179 15.805)"/><path d="M.309.011a.29.29 0 0 1-.145-.035.23.23 0 0 1-.093-.097.318.318 0 0 1-.033-.149c0-.056.011-.106.033-.148a.251.251 0 0 1 .092-.099.265.265 0 0 1 .14-.036c.036 0 .07.006.101.018a.228.228 0 0 1 .136.138.345.345 0 0 1 .019.121v.042h-.46v-.094h.318a.121.121 0 0 0-.014-.058.107.107 0 0 0-.04-.039.12.12 0 0 0-.118.001.115.115 0 0 0-.057.101v.089a.15.15 0 0 0 .015.07c.01.02.024.035.043.046.018.01.04.016.065.016a.172.172 0 0 0 .047-.007.099.099 0 0 0 .035-.022.08.08 0 0 0 .023-.034l.14.009a.202.202 0 0 1-.043.088.218.218 0 0 1-.085.058.312.312 0 0 1-.119.021Z" style="fill:#fff;fill-rule:nonzero" transform="matrix(12 0 0 12 44.025 15.805)"/><path d="M.063 0v-.727H.35c.055 0 .102.01.141.031.039.021.069.05.089.087.021.037.031.08.031.128a.266.266 0 0 1-.031.128.21.21 0 0 1-.091.086.3.3 0 0 1-.143.031H.163v-.123h.158a.15.15 0 0 0 .074-.016.103.103 0 0 0 .043-.042.134.134 0 0 0 .015-.064.128.128 0 0 0-.015-.063.1.1 0 0 0-.044-.042.158.158 0 0 0-.073-.015H.217V0H.063Z" style="fill:#fff;fill-rule:nonzero" transform="matrix(12 0 0 12 51.014 15.805)"/><path d="M.216.01a.227.227 0 0 1-.093-.018.141.141 0 0 1-.064-.054.159.159 0 0 1-.024-.09c0-.031.005-.056.016-.077a.144.144 0 0 1 .046-.049.226.226 0 0 1 .065-.029A.488.488 0 0 1 .24-.32l.076-.01a.11.11 0 0 0 .043-.013.032.032 0 0 0 .013-.026v-.002a.068.068 0 0 0-.021-.053.091.091 0 0 0-.06-.018.107.107 0 0 0-.065.018.084.084 0 0 0-.032.045l-.14-.012a.193.193 0 0 1 .123-.142.36.36 0 0 1 .202-.009.226.226 0 0 1 .074.033.164.164 0 0 1 .051.057.174.174 0 0 1 .019.084V0H.38v-.076H.375a.152.152 0 0 1-.088.075.193.193 0 0 1-.071.011Zm.043-.104a.122.122 0 0 0 .059-.013.096.096 0 0 0 .04-.037.09.09 0 0 0 .015-.051v-.058a.23.23 0 0 1-.047.015.313.313 0 0 1-.03.005l-.028.005a.162.162 0 0 0-.047.012.081.081 0 0 0-.031.023.06.06 0 0 0-.011.036c0 .02.008.036.023.047a.094.094 0 0 0 .057.016Z" style="fill:#fff;fill-rule:nonzero" transform="matrix(12 0 0 12 58.633 15.805)"/><use xlink:href="#reuse-0" style="fill:#fff;fill-rule:nonzero" transform="matrix(12 0 0 12 65.4 15.805)"/><use xlink:href="#reuse-0" style="fill:#fff;fill-rule:nonzero" transform="matrix(12 0 0 12 71.673 15.805)"/></svg>