<?xml version="1.0" encoding="UTF-8" standalone="no"?>
<!DOCTYPE svg PUBLIC "-//W3C//DTD SVG 1.1//EN" "http://www.w3.org/Graphics/SVG/1.1/DTD/svg11.dtd">
<svg width="100%" height="100%" viewBox="0 0 78 19" version="1.1" xmlns="http://www.w3.org/2000/svg" xmlns:xlink="http://www.w3.org/1999/xlink" xml:space="preserve" xmlns:serif="http://www.serif.com/" style="fill-rule:evenodd;clip-rule:evenodd;stroke-linejoin:round;stroke-miterlimit:2;">
    <g transform="matrix(1,0,0,1,-3.79564,-3)">
        <g transform="matrix(1,0,0,1,-0.204356,0)">
            <path d="M13.5,3C18.743,3 23,7.257 23,12.5C23,17.743 18.743,22 13.5,22C8.257,22 4,17.743 4,12.5C4,7.257 8.257,3 13.5,3ZM18.843,13.269C19.243,13.194 19.506,12.901 19.634,12.39C19.709,12.086 19.735,11.823 19.714,11.599L18.843,11.599L18.843,9.857L20.553,9.857L20.553,11.463C20.553,12.097 20.423,12.663 20.162,13.161C19.901,13.659 19.461,13.945 18.843,14.02L18.843,13.269ZM16.158,13.269C16.558,13.194 16.824,12.901 16.957,12.39C17.032,12.086 17.056,11.823 17.029,11.599L16.158,11.599L16.158,9.857L17.86,9.857L17.86,11.463C17.86,12.097 17.73,12.66 17.469,13.153C17.208,13.646 16.771,13.935 16.158,14.02L16.158,13.269ZM7.769,9.784C7.401,9.853 7.143,10.119 6.994,10.583C6.919,10.812 6.882,11.038 6.882,11.262C6.882,11.288 6.883,11.311 6.886,11.33C6.889,11.348 6.893,11.39 6.898,11.454L7.769,11.454L7.769,13.196L6.067,13.196L6.067,11.59C6.067,10.801 6.224,10.194 6.538,9.768C6.853,9.341 7.263,9.096 7.769,9.033L7.769,9.784ZM10.462,9.784C10.169,9.832 9.946,9.997 9.795,10.279C9.643,10.561 9.567,10.886 9.567,11.254C9.567,11.286 9.568,11.318 9.571,11.35C9.573,11.382 9.58,11.416 9.591,11.454L10.462,11.454L10.462,13.196L8.752,13.196L8.752,11.59C8.752,10.956 8.885,10.39 9.151,9.891C9.418,9.393 9.854,9.107 10.462,9.033L10.462,9.784Z" style="fill:white;"/>
            <g transform="matrix(1,0,0,1,-10.924,13.8226)">
                <rect x="36.581" y="-6.758" width="1.845" height="8.727" style="fill:white;fill-rule:nonzero;"/>
                <path d="M41.729,-1.815C41.733,-2.658 42.236,-3.153 42.969,-3.153C43.698,-3.153 44.137,-2.675 44.132,-1.874L44.132,1.969L45.948,1.969L45.948,-2.198C45.948,-3.724 45.053,-4.661 43.689,-4.661C42.718,-4.661 42.015,-4.184 41.721,-3.421L41.644,-3.421L41.644,-4.576L39.914,-4.576L39.914,1.969L41.729,1.969L41.729,-1.815Z" style="fill:white;fill-rule:nonzero;"/>
                <path d="M49.787,2.076C50.844,2.076 51.394,1.467 51.645,0.921L51.722,0.921L51.722,1.969L53.512,1.969L53.512,-6.758L51.701,-6.758L51.701,-3.477L51.645,-3.477C51.402,-4.009 50.878,-4.661 49.783,-4.661C48.347,-4.661 47.133,-3.545 47.133,-1.295C47.133,0.896 48.296,2.076 49.787,2.076ZM50.363,0.631C49.472,0.631 48.986,-0.161 48.986,-1.303C48.986,-2.437 49.463,-3.217 50.363,-3.217C51.245,-3.217 51.739,-2.471 51.739,-1.303C51.739,-0.136 51.236,0.631 50.363,0.631Z" style="fill:white;fill-rule:nonzero;"/>
                <path d="M54.999,1.969L56.814,1.969L56.814,-4.576L54.999,-4.576L54.999,1.969ZM55.911,-5.42C56.452,-5.42 56.895,-5.833 56.895,-6.34C56.895,-6.843 56.452,-7.256 55.911,-7.256C55.374,-7.256 54.931,-6.843 54.931,-6.34C54.931,-5.833 55.374,-5.42 55.911,-5.42Z" style="fill:white;fill-rule:nonzero;"/>
                <path d="M61.246,2.097C62.865,2.097 63.956,1.309 64.212,0.094L62.533,-0.016C62.35,0.482 61.881,0.742 61.276,0.742C60.368,0.742 59.793,0.141 59.793,-0.835L59.793,-0.839L64.25,-0.839L64.25,-1.337C64.25,-3.562 62.904,-4.661 61.174,-4.661C59.248,-4.661 57.999,-3.293 57.999,-1.273C57.999,0.802 59.231,2.097 61.246,2.097ZM59.793,-1.964C59.831,-2.709 60.398,-3.306 61.204,-3.306C61.992,-3.306 62.537,-2.744 62.542,-1.964L59.793,-1.964Z" style="fill:white;fill-rule:nonzero;"/>
                <path d="M65.469,1.969L67.314,1.969L67.314,-0.86L68.865,-0.86C70.873,-0.86 72.04,-2.058 72.04,-3.8C72.04,-5.535 70.894,-6.758 68.912,-6.758L65.469,-6.758L65.469,1.969ZM67.314,-2.339L67.314,-5.249L68.559,-5.249C69.624,-5.249 70.14,-4.67 70.14,-3.8C70.14,-2.935 69.624,-2.339 68.567,-2.339L67.314,-2.339Z" style="fill:white;fill-rule:nonzero;"/>
                <path d="M74.9,2.093C75.867,2.093 76.493,1.671 76.813,1.062L76.864,1.062L76.864,1.969L78.586,1.969L78.586,-2.445C78.586,-4.005 77.265,-4.661 75.807,-4.661C74.239,-4.661 73.208,-3.911 72.956,-2.718L74.635,-2.582C74.759,-3.016 75.147,-3.336 75.799,-3.336C76.417,-3.336 76.77,-3.025 76.77,-2.488L76.77,-2.462C76.77,-2.04 76.323,-1.985 75.185,-1.874C73.89,-1.755 72.726,-1.32 72.726,0.141C72.726,1.437 73.651,2.093 74.9,2.093ZM75.419,0.84C74.861,0.84 74.461,0.58 74.461,0.082C74.461,-0.43 74.883,-0.681 75.522,-0.771C75.918,-0.826 76.566,-0.92 76.783,-1.065L76.783,-0.37C76.783,0.316 76.216,0.84 75.419,0.84Z" style="fill:white;fill-rule:nonzero;"/>
                <path d="M85.442,-2.709C85.28,-3.915 84.309,-4.661 82.655,-4.661C80.981,-4.661 79.877,-3.886 79.881,-2.624C79.877,-1.644 80.495,-1.009 81.773,-0.754L82.907,-0.528C83.478,-0.413 83.738,-0.204 83.746,0.124C83.738,0.512 83.316,0.789 82.681,0.789C82.033,0.789 81.603,0.512 81.492,-0.021L79.706,0.073C79.877,1.326 80.942,2.097 82.677,2.097C84.373,2.097 85.587,1.232 85.591,-0.059C85.587,-1.005 84.969,-1.572 83.699,-1.832L82.515,-2.07C81.905,-2.202 81.679,-2.411 81.684,-2.727C81.679,-3.119 82.123,-3.374 82.685,-3.374C83.316,-3.374 83.691,-3.029 83.78,-2.607L85.442,-2.709Z" style="fill:white;fill-rule:nonzero;"/>
                <path d="M92.184,-2.709C92.022,-3.915 91.05,-4.661 89.397,-4.661C87.722,-4.661 86.618,-3.886 86.623,-2.624C86.618,-1.644 87.236,-1.009 88.515,-0.754L89.648,-0.528C90.219,-0.413 90.479,-0.204 90.488,0.124C90.479,0.512 90.057,0.789 89.422,0.789C88.775,0.789 88.344,0.512 88.233,-0.021L86.448,0.073C86.618,1.326 87.684,2.097 89.418,2.097C91.114,2.097 92.328,1.232 92.333,-0.059C92.328,-1.005 91.711,-1.572 90.441,-1.832L89.256,-2.07C88.647,-2.202 88.421,-2.411 88.425,-2.727C88.421,-3.119 88.864,-3.374 89.427,-3.374C90.057,-3.374 90.432,-3.029 90.522,-2.607L92.184,-2.709Z" style="fill:white;fill-rule:nonzero;"/>
            </g>
        </g>
    </g>
</svg>
